# xmcd
#
# Track frame offsets: 
#        150
#        15282
#        27346
#        39557
#
# Disc length: 746 seconds
#
# Revision: 0
# Processed by: cddbd v1.5.2PL0 Copyright (c) Steve Scherf et al.
# Submitted via: ExactAudioCopy v0.99pb3
#
DISCID=2202e804
DTITLE=Sisson, Kevin - An American Christmas [CD-R Sampler)
DYEAR=2004
DGENRE=Christmas/Holiday
TTITLE0=Let's Do Santa's Boogie
TTITLE1=Rock Me Santa
TTITLE2=Wake Up Wake Up
TTITLE3=Ridin' Shotgun With Santa
EXTD=
EXTT0=
EXTT1=
EXTT2=
EXTT3=
PLAYORDER=
